<?xml version="1.0" encoding="UTF-8"?><svg id="artwork" xmlns="http://www.w3.org/2000/svg" xmlns:xlink="http://www.w3.org/1999/xlink" viewBox="0 0 216 115.2"><defs><style>.cls-1{fill:url(#linear-gradient);}.cls-2{fill:#fff;}.cls-3{fill:#8dc63f;}.cls-4{fill:#231f20;}</style><linearGradient id="linear-gradient" x1="5.86" y1="38.31" x2="76.28" y2="38.31" gradientTransform="matrix(1, 0, 0, 1, 0, 0)" gradientUnits="userSpaceOnUse"><stop offset="0" stop-color="#00a4e4"/><stop offset="1" stop-color="#8dc63f"/></linearGradient></defs><g><rect class="cls-3" x="154.93" y="50.98" width="55.21" height="55.21"/><g><path class="cls-4" d="M64.27,61.46c2.21-.37,5.1-.68,8.78-.68,4.52,0,7.84,1.05,9.94,2.94,1.89,1.68,3.1,4.26,3.1,7.41s-.95,5.73-2.73,7.57c-2.47,2.58-6.36,3.89-10.83,3.89-1.37,0-2.63-.05-3.68-.31v14.2h-4.57V61.46Zm4.57,17.09c1,.26,2.26,.37,3.79,.37,5.52,0,8.89-2.73,8.89-7.52s-3.37-6.99-8.36-6.99c-2,0-3.52,.16-4.31,.37v13.78Z"/><path class="cls-4" d="M112.49,83.55c0,9.41-6.57,13.52-12.67,13.52-6.84,0-12.2-5.05-12.2-13.09,0-8.47,5.63-13.46,12.62-13.46s12.25,5.31,12.25,13.04Zm-20.14,.26c0,5.57,3.15,9.78,7.68,9.78s7.73-4.15,7.73-9.89c0-4.31-2.16-9.73-7.62-9.73s-7.78,5.05-7.78,9.83Z"/><path class="cls-4" d="M118.33,59.15h4.63v37.34h-4.63V59.15Z"/><path class="cls-4" d="M132.43,71.03l5.52,15.04c.63,1.68,1.26,3.68,1.68,5.21h.1c.47-1.53,1-3.47,1.63-5.31l5.05-14.93h4.89l-6.94,18.14c-3.31,8.73-5.57,13.15-8.73,15.93-2.31,1.95-4.52,2.73-5.68,2.94l-1.16-3.84c1.16-.37,2.68-1.1,4.05-2.26,1.26-1,2.79-2.79,3.89-5.15,.21-.47,.37-.84,.37-1.11s-.1-.63-.37-1.21l-9.36-23.45h5.05Z"/><path class="cls-2" d="M168.45,61.04v35.44h-7.99V61.04h7.99Z"/><path class="cls-2" d="M174.87,61.57c2.94-.47,6.78-.79,10.78-.79,6.78,0,11.2,1.26,14.57,3.79,3.68,2.73,5.99,7.1,5.99,13.36,0,6.78-2.47,11.46-5.84,14.36-3.73,3.1-9.46,4.57-16.41,4.57-4.15,0-7.15-.26-9.1-.53V61.57Zm7.99,28.87c.68,.16,1.84,.16,2.79,.16,7.31,.05,12.09-3.94,12.09-12.41,0-7.36-4.31-11.25-11.25-11.25-1.74,0-2.95,.16-3.63,.32v23.19Z"/></g></g><g><path class="cls-4" d="M68.85,30.87c-1.81,0-3.48,.65-4.77,1.73l-17.74-16.15c.82-1.2,1.31-2.65,1.31-4.21,0-4.11-3.33-7.43-7.43-7.43s-7.43,3.33-7.43,7.43c0,.79,.13,1.56,.36,2.27l-13.65,6.55c-1.33-2.01-3.61-3.34-6.2-3.34-4.11,0-7.43,3.33-7.43,7.43s3.33,7.43,7.43,7.43c1.2,0,2.33-.29,3.34-.8l4.47,6.51-4.47,6.51c-1-.51-2.13-.8-3.34-.8-4.11,0-7.43,3.33-7.43,7.43s3.33,7.43,7.43,7.43c2.8,0,5.23-1.55,6.5-3.83l13.42,6.86c-.27,.77-.42,1.59-.42,2.45,0,4.11,3.33,7.43,7.43,7.43s7.43-3.33,7.43-7.43c0-1.56-.49-3.01-1.31-4.21l17.74-16.15c1.29,1.08,2.95,1.73,4.77,1.73,4.11,0,7.43-3.33,7.43-7.43s-3.33-7.43-7.43-7.43Zm-28.63,26.06c-1.2,0-2.33,.29-3.34,.8l-8.58-12.48,5.74-2.8c1.33,1.99,3.6,3.3,6.18,3.3,3.76,0,6.86-2.8,7.36-6.42h13.91c.16,1.18,.59,2.27,1.23,3.2l-17.74,16.15c-1.29-1.08-2.95-1.73-4.77-1.73Zm0-37.25c1.81,0,3.48-.65,4.77-1.73l17.74,16.15c-.64,.93-1.07,2.02-1.23,3.2h-13.91c-.49-3.63-3.59-6.43-7.36-6.43-2.57,0-4.84,1.31-6.18,3.3l-5.74-2.8,8.58-12.48c1,.51,2.13,.8,3.34,.8Zm-7.06,16.3c-.24,.73-.38,1.51-.38,2.32s.13,1.59,.38,2.32l-6.01,2.93-3.61-5.26,3.61-5.26,6.01,2.93Zm.86-19.64c.34,.52,.75,.98,1.21,1.4l-8.75,12.73-6.13-2.99c.24-.73,.38-1.51,.38-2.32s-.13-1.56-.36-2.27l13.65-6.55Zm-15.73,14.31c.44-.4,.84-.86,1.18-1.36l5.85,2.86-3,4.37-4.03-5.87Zm4.03,9.43l3,4.37-5.85,2.86c-.34-.5-.74-.95-1.18-1.36l4.03-5.87Zm-1.8,13.07c.13-.55,.21-1.12,.21-1.71,0-.81-.13-1.59-.38-2.32l6.13-2.99,8.75,12.73c-.41,.37-.78,.79-1.1,1.24l-13.61-6.96Z"/><path class="cls-1" d="M68.85,30.87c-1.81,0-3.48,.65-4.77,1.73l-17.74-16.15c.82-1.2,1.31-2.65,1.31-4.21,0-4.11-3.33-7.43-7.43-7.43s-7.43,3.33-7.43,7.43c0,.79,.13,1.56,.36,2.27l-13.65,6.55c-1.33-2.01-3.61-3.34-6.2-3.34-4.11,0-7.43,3.33-7.43,7.43s3.33,7.43,7.43,7.43c1.2,0,2.33-.29,3.34-.8l4.47,6.51-4.47,6.51c-1-.51-2.13-.8-3.34-.8-4.11,0-7.43,3.33-7.43,7.43s3.33,7.43,7.43,7.43c2.8,0,5.23-1.55,6.5-3.83l13.42,6.86c-.27,.77-.42,1.59-.42,2.45,0,4.11,3.33,7.43,7.43,7.43s7.43-3.33,7.43-7.43c0-1.56-.49-3.01-1.31-4.21l17.74-16.15c1.29,1.08,2.95,1.73,4.77,1.73,4.11,0,7.43-3.33,7.43-7.43s-3.33-7.43-7.43-7.43Zm-28.63,26.06c-1.2,0-2.33,.29-3.34,.8l-8.58-12.48,5.74-2.8c1.33,1.99,3.6,3.3,6.18,3.3,3.76,0,6.86-2.8,7.36-6.42h13.91c.16,1.18,.59,2.27,1.23,3.2l-17.74,16.15c-1.29-1.08-2.95-1.73-4.77-1.73Zm0-37.25c1.81,0,3.48-.65,4.77-1.73l17.74,16.15c-.64,.93-1.07,2.02-1.23,3.2h-13.91c-.49-3.63-3.59-6.43-7.36-6.43-2.57,0-4.84,1.31-6.18,3.3l-5.74-2.8,8.58-12.48c1,.51,2.13,.8,3.34,.8Zm-7.06,16.3c-.24,.73-.38,1.51-.38,2.32s.13,1.59,.38,2.32l-6.01,2.93-3.61-5.26,3.61-5.26,6.01,2.93Zm.86-19.64c.34,.52,.75,.98,1.21,1.4l-8.75,12.73-6.13-2.99c.24-.73,.38-1.51,.38-2.32s-.13-1.56-.36-2.27l13.65-6.55Zm-15.73,14.31c.44-.4,.84-.86,1.18-1.36l5.85,2.86-3,4.37-4.03-5.87Zm4.03,9.43l3,4.37-5.85,2.86c-.34-.5-.74-.95-1.18-1.36l4.03-5.87Zm-1.8,13.07c.13-.55,.21-1.12,.21-1.71,0-.81-.13-1.59-.38-2.32l6.13-2.99,8.75,12.73c-.41,.37-.78,.79-1.1,1.24l-13.61-6.96Z"/></g></svg>